<?xml version="1.0"?>
<svg xmlns="http://www.w3.org/2000/svg" version="1.2" baseProfile="tiny" width="300" height="31" viewBox="0 0 300 31" stroke-linecap="butt" stroke-linejoin="round">
<style>
  path {shape-rendering: crispEdges;}
</style>
<g id="layer4">
<path d="M 1 10.93 1 1 34.11 1 34.11 10.93 1 10.93 Z" fill="#fcfbfd"/>
<path d="M 34.11 10.93 34.11 1 67.22 1 67.22 10.93 34.11 10.93 Z" fill="#efedf5"/>
<path d="M 67.22 10.93 67.22 1 100.33 1 100.33 10.93 67.22 10.93 Z" fill="#dadaeb"/>
<path d="M 100.33 10.93 100.33 1 133.44 1 133.44 10.93 100.33 10.93 Z" fill="#bcbddc"/>
<path d="M 133.44 10.93 133.44 1 166.56 1 166.56 10.93 133.44 10.93 Z" fill="#9e9ac8"/>
<path d="M 166.56 10.93 166.56 1 199.67 1 199.67 10.93 166.56 10.93 Z" fill="#807dba"/>
<path d="M 199.67 10.93 199.67 1 232.78 1 232.78 10.93 199.67 10.93 Z" fill="#6a51a3"/>
<path d="M 232.78 10.93 232.78 1 265.89 1 265.89 10.93 232.78 10.93 Z" fill="#54278f"/>
<path d="M 265.89 10.93 265.89 1 299 1 299 10.93 265.89 10.93 Z" fill="#3f007d"/>
</g>
<g id="layer5" fill="none" stroke="black" stroke-width="1">
<path d="M 34.11 1 34.11 16.89" stroke="rgba(0,0,0,0.3)"/>
<path d="M 67.22 1 67.22 16.89" stroke="rgba(0,0,0,0.3)"/>
<path d="M 100.33 1 100.33 16.89" stroke="rgba(0,0,0,0.3)"/>
<path d="M 133.44 1 133.44 16.89" stroke="rgba(0,0,0,0.3)"/>
<path d="M 166.56 1 166.56 16.89" stroke="rgba(0,0,0,0.3)"/>
<path d="M 199.67 1 199.67 16.89" stroke="rgba(0,0,0,0.3)"/>
<path d="M 232.78 1 232.78 16.89" stroke="rgba(0,0,0,0.3)"/>
<path d="M 265.89 1 265.89 16.89" stroke="rgba(0,0,0,0.3)"/>
</g>
<g id="layer6" font-family="sans-serif" font-size="12" text-anchor="middle">
<text y="0" x="0" transform="translate(34.1111 29.906)" font-family="sans-serif" font-size="13" text-anchor="middle" fill="#555">14</text>
<text y="0" x="0" transform="translate(67.2222 29.906)" font-family="sans-serif" font-size="13" text-anchor="middle" fill="#555">16</text>
<text y="0" x="0" transform="translate(100.3333 29.906)" font-family="sans-serif" font-size="13" text-anchor="middle" fill="#555">18</text>
<text y="0" x="0" transform="translate(133.4444 29.906)" font-family="sans-serif" font-size="13" text-anchor="middle" fill="#555">22</text>
<text y="0" x="0" transform="translate(166.5556 29.906)" font-family="sans-serif" font-size="13" text-anchor="middle" fill="#555">24</text>
<text y="0" x="0" transform="translate(199.6667 29.906)" font-family="sans-serif" font-size="13" text-anchor="middle" fill="#555">26</text>
<text y="0" x="0" transform="translate(232.7778 29.906)" font-family="sans-serif" font-size="13" text-anchor="middle" fill="#555">28</text>
<text y="0" x="0" transform="translate(265.8889 29.906)" font-family="sans-serif" font-size="13" text-anchor="middle" fill="#555">30</text>
</g>
</svg>