<?xml version="1.0"?>
<svg xmlns="http://www.w3.org/2000/svg" version="1.2" baseProfile="tiny" width="300" height="31" viewBox="0 0 300 31" stroke-linecap="butt" stroke-linejoin="round">
<style>
  path {shape-rendering: crispEdges;}
</style>
<g id="layer10">
<path d="M 1 10.93 1 1 38.25 1 38.25 10.93 1 10.93 Z" fill="#fff7ec"/>
<path d="M 38.25 10.93 38.25 1 75.5 1 75.5 10.93 38.25 10.93 Z" fill="#fee8c8"/>
<path d="M 75.5 10.93 75.5 1 112.75 1 112.75 10.93 75.5 10.93 Z" fill="#fdd49e"/>
<path d="M 112.75 10.93 112.75 1 150 1 150 10.93 112.75 10.93 Z" fill="#fdbb84"/>
<path d="M 150 10.93 150 1 187.25 1 187.25 10.93 150 10.93 Z" fill="#fc8d59"/>
<path d="M 187.25 10.93 187.25 1 224.5 1 224.5 10.93 187.25 10.93 Z" fill="#ef6548"/>
<path d="M 224.5 10.93 224.5 1 261.75 1 261.75 10.93 224.5 10.93 Z" fill="#d7301f"/>
<path d="M 261.75 10.93 261.75 1 299 1 299 10.93 261.75 10.93 Z" fill="#990000"/>
</g>
<g id="layer11" fill="none" stroke="black" stroke-width="1">
<path d="M 38.25 1 38.25 16.89" stroke="rgba(0,0,0,0.3)"/>
<path d="M 75.5 1 75.5 16.89" stroke="rgba(0,0,0,0.3)"/>
<path d="M 112.75 1 112.75 16.89" stroke="rgba(0,0,0,0.3)"/>
<path d="M 150 1 150 16.89" stroke="rgba(0,0,0,0.3)"/>
<path d="M 187.25 1 187.25 16.89" stroke="rgba(0,0,0,0.3)"/>
<path d="M 224.5 1 224.5 16.89" stroke="rgba(0,0,0,0.3)"/>
<path d="M 261.75 1 261.75 16.89" stroke="rgba(0,0,0,0.3)"/>
</g>
<g id="layer12" font-family="sans-serif" font-size="12" text-anchor="middle">
<text y="0" x="0" transform="translate(38.25 29.906)" font-family="sans-serif" font-size="13" text-anchor="middle" fill="#555">6</text>
<text y="0" x="0" transform="translate(75.5 29.906)" font-family="sans-serif" font-size="13" text-anchor="middle" fill="#555">7</text>
<text y="0" x="0" transform="translate(112.75 29.906)" font-family="sans-serif" font-size="13" text-anchor="middle" fill="#555">7</text>
<text y="0" x="0" transform="translate(150 29.906)" font-family="sans-serif" font-size="13" text-anchor="middle" fill="#555">8</text>
<text y="0" x="0" transform="translate(187.25 29.906)" font-family="sans-serif" font-size="13" text-anchor="middle" fill="#555">8</text>
<text y="0" x="0" transform="translate(224.5 29.906)" font-family="sans-serif" font-size="13" text-anchor="middle" fill="#555">9</text>
<text y="0" x="0" transform="translate(261.75 29.906)" font-family="sans-serif" font-size="13" text-anchor="middle" fill="#555">10</text>
</g>
</svg>